<mxfile host="app.diagrams.net" modified="2023-09-19T14:57:20.783Z" agent="Mozilla/5.0 (Windows NT 10.0; Win64; x64; rv:109.0) Gecko/20100101 Firefox/117.0" etag="AeRK9ZzjdfnZndX06eZH" version="21.7.5" type="device">
  <diagram name="Pagina-1" id="aiNcbTCZE_fxRP9vip5r">
    <mxGraphModel dx="3183" dy="1647" grid="1" gridSize="5" guides="1" tooltips="1" connect="1" arrows="1" fold="1" page="1" pageScale="1" pageWidth="583" pageHeight="827" math="0" shadow="0">
      <root>
        <mxCell id="0" />
        <mxCell id="1" parent="0" />
        <mxCell id="SdnSs6TBn7ditOvQ-hDc-54" value="videogame" style="shape=table;startSize=30;container=1;collapsible=1;childLayout=tableLayout;fixedRows=1;rowLines=0;fontStyle=1;align=center;resizeLast=1;html=1;" vertex="1" parent="1">
          <mxGeometry x="-960" y="-257.5" width="231" height="192.5" as="geometry" />
        </mxCell>
        <mxCell id="SdnSs6TBn7ditOvQ-hDc-55" value="" style="shape=tableRow;horizontal=0;startSize=0;swimlaneHead=0;swimlaneBody=0;fillColor=none;collapsible=0;dropTarget=0;points=[[0,0.5],[1,0.5]];portConstraint=eastwest;top=0;left=0;right=0;bottom=1;" vertex="1" parent="SdnSs6TBn7ditOvQ-hDc-54">
          <mxGeometry y="30" width="231" height="30" as="geometry" />
        </mxCell>
        <mxCell id="SdnSs6TBn7ditOvQ-hDc-56" value="PK" style="shape=partialRectangle;connectable=0;fillColor=none;top=0;left=0;bottom=0;right=0;fontStyle=1;overflow=hidden;whiteSpace=wrap;html=1;" vertex="1" parent="SdnSs6TBn7ditOvQ-hDc-55">
          <mxGeometry width="30" height="30" as="geometry">
            <mxRectangle width="30" height="30" as="alternateBounds" />
          </mxGeometry>
        </mxCell>
        <mxCell id="SdnSs6TBn7ditOvQ-hDc-57" value="videogame_id" style="shape=partialRectangle;connectable=0;fillColor=none;top=0;left=0;bottom=0;right=0;align=left;spacingLeft=6;fontStyle=5;overflow=hidden;whiteSpace=wrap;html=1;" vertex="1" parent="SdnSs6TBn7ditOvQ-hDc-55">
          <mxGeometry x="30" width="201" height="30" as="geometry">
            <mxRectangle width="201" height="30" as="alternateBounds" />
          </mxGeometry>
        </mxCell>
        <mxCell id="SdnSs6TBn7ditOvQ-hDc-58" value="" style="shape=tableRow;horizontal=0;startSize=0;swimlaneHead=0;swimlaneBody=0;fillColor=none;collapsible=0;dropTarget=0;points=[[0,0.5],[1,0.5]];portConstraint=eastwest;top=0;left=0;right=0;bottom=0;" vertex="1" parent="SdnSs6TBn7ditOvQ-hDc-54">
          <mxGeometry y="60" width="231" height="30" as="geometry" />
        </mxCell>
        <mxCell id="SdnSs6TBn7ditOvQ-hDc-59" value="" style="shape=partialRectangle;connectable=0;fillColor=none;top=0;left=0;bottom=0;right=0;editable=1;overflow=hidden;whiteSpace=wrap;html=1;" vertex="1" parent="SdnSs6TBn7ditOvQ-hDc-58">
          <mxGeometry width="30" height="30" as="geometry">
            <mxRectangle width="30" height="30" as="alternateBounds" />
          </mxGeometry>
        </mxCell>
        <mxCell id="SdnSs6TBn7ditOvQ-hDc-60" value="&lt;font style=&quot;font-size: 10px;&quot;&gt;nome (varchar500) NOT NULL&lt;/font&gt;" style="shape=partialRectangle;connectable=0;fillColor=none;top=0;left=0;bottom=0;right=0;align=left;spacingLeft=6;overflow=hidden;whiteSpace=wrap;html=1;" vertex="1" parent="SdnSs6TBn7ditOvQ-hDc-58">
          <mxGeometry x="30" width="201" height="30" as="geometry">
            <mxRectangle width="201" height="30" as="alternateBounds" />
          </mxGeometry>
        </mxCell>
        <mxCell id="SdnSs6TBn7ditOvQ-hDc-61" value="" style="shape=tableRow;horizontal=0;startSize=0;swimlaneHead=0;swimlaneBody=0;fillColor=none;collapsible=0;dropTarget=0;points=[[0,0.5],[1,0.5]];portConstraint=eastwest;top=0;left=0;right=0;bottom=0;" vertex="1" parent="SdnSs6TBn7ditOvQ-hDc-54">
          <mxGeometry y="90" width="231" height="30" as="geometry" />
        </mxCell>
        <mxCell id="SdnSs6TBn7ditOvQ-hDc-62" value="" style="shape=partialRectangle;connectable=0;fillColor=none;top=0;left=0;bottom=0;right=0;editable=1;overflow=hidden;whiteSpace=wrap;html=1;" vertex="1" parent="SdnSs6TBn7ditOvQ-hDc-61">
          <mxGeometry width="30" height="30" as="geometry">
            <mxRectangle width="30" height="30" as="alternateBounds" />
          </mxGeometry>
        </mxCell>
        <mxCell id="SdnSs6TBn7ditOvQ-hDc-63" value="&lt;font style=&quot;font-size: 10px;&quot;&gt;trama (text 255) NOT NULL&lt;/font&gt;" style="shape=partialRectangle;connectable=0;fillColor=none;top=0;left=0;bottom=0;right=0;align=left;spacingLeft=6;overflow=hidden;whiteSpace=wrap;html=1;" vertex="1" parent="SdnSs6TBn7ditOvQ-hDc-61">
          <mxGeometry x="30" width="201" height="30" as="geometry">
            <mxRectangle width="201" height="30" as="alternateBounds" />
          </mxGeometry>
        </mxCell>
        <mxCell id="SdnSs6TBn7ditOvQ-hDc-64" value="" style="shape=tableRow;horizontal=0;startSize=0;swimlaneHead=0;swimlaneBody=0;fillColor=none;collapsible=0;dropTarget=0;points=[[0,0.5],[1,0.5]];portConstraint=eastwest;top=0;left=0;right=0;bottom=0;" vertex="1" parent="SdnSs6TBn7ditOvQ-hDc-54">
          <mxGeometry y="120" width="231" height="30" as="geometry" />
        </mxCell>
        <mxCell id="SdnSs6TBn7ditOvQ-hDc-65" value="" style="shape=partialRectangle;connectable=0;fillColor=none;top=0;left=0;bottom=0;right=0;editable=1;overflow=hidden;whiteSpace=wrap;html=1;" vertex="1" parent="SdnSs6TBn7ditOvQ-hDc-64">
          <mxGeometry width="30" height="30" as="geometry">
            <mxRectangle width="30" height="30" as="alternateBounds" />
          </mxGeometry>
        </mxCell>
        <mxCell id="SdnSs6TBn7ditOvQ-hDc-66" value="&lt;font style=&quot;font-size: 10px;&quot;&gt;data_di_rilascio(date) NOT NULL&lt;font style=&quot;font-size: 10px;&quot;&gt;&lt;br&gt;&lt;/font&gt;&lt;/font&gt;" style="shape=partialRectangle;connectable=0;fillColor=none;top=0;left=0;bottom=0;right=0;align=left;spacingLeft=6;overflow=hidden;whiteSpace=wrap;html=1;" vertex="1" parent="SdnSs6TBn7ditOvQ-hDc-64">
          <mxGeometry x="30" width="201" height="30" as="geometry">
            <mxRectangle width="201" height="30" as="alternateBounds" />
          </mxGeometry>
        </mxCell>
        <mxCell id="SdnSs6TBn7ditOvQ-hDc-185" value="" style="shape=tableRow;horizontal=0;startSize=0;swimlaneHead=0;swimlaneBody=0;fillColor=none;collapsible=0;dropTarget=0;points=[[0,0.5],[1,0.5]];portConstraint=eastwest;top=0;left=0;right=0;bottom=0;" vertex="1" parent="SdnSs6TBn7ditOvQ-hDc-54">
          <mxGeometry y="150" width="231" height="40" as="geometry" />
        </mxCell>
        <mxCell id="SdnSs6TBn7ditOvQ-hDc-186" value="FK" style="shape=partialRectangle;connectable=0;fillColor=none;top=0;left=0;bottom=0;right=0;editable=1;overflow=hidden;" vertex="1" parent="SdnSs6TBn7ditOvQ-hDc-185">
          <mxGeometry width="30" height="40" as="geometry">
            <mxRectangle width="30" height="40" as="alternateBounds" />
          </mxGeometry>
        </mxCell>
        <mxCell id="SdnSs6TBn7ditOvQ-hDc-187" value="software_house varchar(50)" style="shape=partialRectangle;connectable=0;fillColor=none;top=0;left=0;bottom=0;right=0;align=left;spacingLeft=6;overflow=hidden;fontSize=10;" vertex="1" parent="SdnSs6TBn7ditOvQ-hDc-185">
          <mxGeometry x="30" width="201" height="40" as="geometry">
            <mxRectangle width="201" height="40" as="alternateBounds" />
          </mxGeometry>
        </mxCell>
        <mxCell id="SdnSs6TBn7ditOvQ-hDc-80" value="software_house" style="shape=table;startSize=30;container=1;collapsible=1;childLayout=tableLayout;fixedRows=1;rowLines=0;fontStyle=1;align=center;resizeLast=1;html=1;fontSize=10;" vertex="1" parent="1">
          <mxGeometry x="-370" y="-215" width="245" height="190" as="geometry" />
        </mxCell>
        <mxCell id="SdnSs6TBn7ditOvQ-hDc-81" value="" style="shape=tableRow;horizontal=0;startSize=0;swimlaneHead=0;swimlaneBody=0;fillColor=none;collapsible=0;dropTarget=0;points=[[0,0.5],[1,0.5]];portConstraint=eastwest;top=0;left=0;right=0;bottom=1;" vertex="1" parent="SdnSs6TBn7ditOvQ-hDc-80">
          <mxGeometry y="30" width="245" height="30" as="geometry" />
        </mxCell>
        <mxCell id="SdnSs6TBn7ditOvQ-hDc-82" value="PK" style="shape=partialRectangle;connectable=0;fillColor=none;top=0;left=0;bottom=0;right=0;fontStyle=1;overflow=hidden;whiteSpace=wrap;html=1;" vertex="1" parent="SdnSs6TBn7ditOvQ-hDc-81">
          <mxGeometry width="30" height="30" as="geometry">
            <mxRectangle width="30" height="30" as="alternateBounds" />
          </mxGeometry>
        </mxCell>
        <mxCell id="SdnSs6TBn7ditOvQ-hDc-83" value="software_house_id varchar(15)" style="shape=partialRectangle;connectable=0;fillColor=none;top=0;left=0;bottom=0;right=0;align=left;spacingLeft=6;fontStyle=5;overflow=hidden;whiteSpace=wrap;html=1;" vertex="1" parent="SdnSs6TBn7ditOvQ-hDc-81">
          <mxGeometry x="30" width="215" height="30" as="geometry">
            <mxRectangle width="215" height="30" as="alternateBounds" />
          </mxGeometry>
        </mxCell>
        <mxCell id="SdnSs6TBn7ditOvQ-hDc-84" value="" style="shape=tableRow;horizontal=0;startSize=0;swimlaneHead=0;swimlaneBody=0;fillColor=none;collapsible=0;dropTarget=0;points=[[0,0.5],[1,0.5]];portConstraint=eastwest;top=0;left=0;right=0;bottom=0;" vertex="1" parent="SdnSs6TBn7ditOvQ-hDc-80">
          <mxGeometry y="60" width="245" height="30" as="geometry" />
        </mxCell>
        <mxCell id="SdnSs6TBn7ditOvQ-hDc-85" value="" style="shape=partialRectangle;connectable=0;fillColor=none;top=0;left=0;bottom=0;right=0;editable=1;overflow=hidden;whiteSpace=wrap;html=1;" vertex="1" parent="SdnSs6TBn7ditOvQ-hDc-84">
          <mxGeometry width="30" height="30" as="geometry">
            <mxRectangle width="30" height="30" as="alternateBounds" />
          </mxGeometry>
        </mxCell>
        <mxCell id="SdnSs6TBn7ditOvQ-hDc-86" value="&lt;font style=&quot;font-size: 9px;&quot;&gt;nome &lt;font style=&quot;font-size: 9px;&quot;&gt;varchar(50) NOT NULL&lt;/font&gt;&lt;/font&gt;" style="shape=partialRectangle;connectable=0;fillColor=none;top=0;left=0;bottom=0;right=0;align=left;spacingLeft=6;overflow=hidden;whiteSpace=wrap;html=1;" vertex="1" parent="SdnSs6TBn7ditOvQ-hDc-84">
          <mxGeometry x="30" width="215" height="30" as="geometry">
            <mxRectangle width="215" height="30" as="alternateBounds" />
          </mxGeometry>
        </mxCell>
        <mxCell id="SdnSs6TBn7ditOvQ-hDc-87" value="" style="shape=tableRow;horizontal=0;startSize=0;swimlaneHead=0;swimlaneBody=0;fillColor=none;collapsible=0;dropTarget=0;points=[[0,0.5],[1,0.5]];portConstraint=eastwest;top=0;left=0;right=0;bottom=0;" vertex="1" parent="SdnSs6TBn7ditOvQ-hDc-80">
          <mxGeometry y="90" width="245" height="30" as="geometry" />
        </mxCell>
        <mxCell id="SdnSs6TBn7ditOvQ-hDc-88" value="" style="shape=partialRectangle;connectable=0;fillColor=none;top=0;left=0;bottom=0;right=0;editable=1;overflow=hidden;whiteSpace=wrap;html=1;" vertex="1" parent="SdnSs6TBn7ditOvQ-hDc-87">
          <mxGeometry width="30" height="30" as="geometry">
            <mxRectangle width="30" height="30" as="alternateBounds" />
          </mxGeometry>
        </mxCell>
        <mxCell id="SdnSs6TBn7ditOvQ-hDc-89" value="&lt;font style=&quot;font-size: 10px;&quot;&gt;partita_iva varchar(100) NOT NULL&lt;/font&gt;" style="shape=partialRectangle;connectable=0;fillColor=none;top=0;left=0;bottom=0;right=0;align=left;spacingLeft=6;overflow=hidden;whiteSpace=wrap;html=1;" vertex="1" parent="SdnSs6TBn7ditOvQ-hDc-87">
          <mxGeometry x="30" width="215" height="30" as="geometry">
            <mxRectangle width="215" height="30" as="alternateBounds" />
          </mxGeometry>
        </mxCell>
        <mxCell id="SdnSs6TBn7ditOvQ-hDc-194" value="" style="shape=tableRow;horizontal=0;startSize=0;swimlaneHead=0;swimlaneBody=0;fillColor=none;collapsible=0;dropTarget=0;points=[[0,0.5],[1,0.5]];portConstraint=eastwest;top=0;left=0;right=0;bottom=0;" vertex="1" parent="SdnSs6TBn7ditOvQ-hDc-80">
          <mxGeometry y="120" width="245" height="30" as="geometry" />
        </mxCell>
        <mxCell id="SdnSs6TBn7ditOvQ-hDc-195" value="" style="shape=partialRectangle;connectable=0;fillColor=none;top=0;left=0;bottom=0;right=0;editable=1;overflow=hidden;" vertex="1" parent="SdnSs6TBn7ditOvQ-hDc-194">
          <mxGeometry width="30" height="30" as="geometry">
            <mxRectangle width="30" height="30" as="alternateBounds" />
          </mxGeometry>
        </mxCell>
        <mxCell id="SdnSs6TBn7ditOvQ-hDc-196" value="citta varchar(100) NOT NULL" style="shape=partialRectangle;connectable=0;fillColor=none;top=0;left=0;bottom=0;right=0;align=left;spacingLeft=6;overflow=hidden;fontSize=10;" vertex="1" parent="SdnSs6TBn7ditOvQ-hDc-194">
          <mxGeometry x="30" width="215" height="30" as="geometry">
            <mxRectangle width="215" height="30" as="alternateBounds" />
          </mxGeometry>
        </mxCell>
        <mxCell id="SdnSs6TBn7ditOvQ-hDc-375" value="" style="shape=tableRow;horizontal=0;startSize=0;swimlaneHead=0;swimlaneBody=0;fillColor=none;collapsible=0;dropTarget=0;points=[[0,0.5],[1,0.5]];portConstraint=eastwest;top=0;left=0;right=0;bottom=0;" vertex="1" parent="SdnSs6TBn7ditOvQ-hDc-80">
          <mxGeometry y="150" width="245" height="30" as="geometry" />
        </mxCell>
        <mxCell id="SdnSs6TBn7ditOvQ-hDc-376" value="" style="shape=partialRectangle;connectable=0;fillColor=none;top=0;left=0;bottom=0;right=0;editable=1;overflow=hidden;" vertex="1" parent="SdnSs6TBn7ditOvQ-hDc-375">
          <mxGeometry width="30" height="30" as="geometry">
            <mxRectangle width="30" height="30" as="alternateBounds" />
          </mxGeometry>
        </mxCell>
        <mxCell id="SdnSs6TBn7ditOvQ-hDc-377" value="nazione varchar(50) NOT NULL" style="shape=partialRectangle;connectable=0;fillColor=none;top=0;left=0;bottom=0;right=0;align=left;spacingLeft=6;overflow=hidden;fontSize=10;" vertex="1" parent="SdnSs6TBn7ditOvQ-hDc-375">
          <mxGeometry x="30" width="215" height="30" as="geometry">
            <mxRectangle width="215" height="30" as="alternateBounds" />
          </mxGeometry>
        </mxCell>
        <mxCell id="SdnSs6TBn7ditOvQ-hDc-93" value="piattaforma" style="shape=table;startSize=30;container=1;collapsible=1;childLayout=tableLayout;fixedRows=1;rowLines=0;fontStyle=1;align=center;resizeLast=1;html=1;" vertex="1" parent="1">
          <mxGeometry x="-1680" y="-235" width="253" height="125" as="geometry" />
        </mxCell>
        <mxCell id="SdnSs6TBn7ditOvQ-hDc-94" value="" style="shape=tableRow;horizontal=0;startSize=0;swimlaneHead=0;swimlaneBody=0;fillColor=none;collapsible=0;dropTarget=0;points=[[0,0.5],[1,0.5]];portConstraint=eastwest;top=0;left=0;right=0;bottom=1;" vertex="1" parent="SdnSs6TBn7ditOvQ-hDc-93">
          <mxGeometry y="30" width="253" height="40" as="geometry" />
        </mxCell>
        <mxCell id="SdnSs6TBn7ditOvQ-hDc-95" value="PK" style="shape=partialRectangle;connectable=0;fillColor=none;top=0;left=0;bottom=0;right=0;fontStyle=1;overflow=hidden;whiteSpace=wrap;html=1;" vertex="1" parent="SdnSs6TBn7ditOvQ-hDc-94">
          <mxGeometry width="30" height="40" as="geometry">
            <mxRectangle width="30" height="40" as="alternateBounds" />
          </mxGeometry>
        </mxCell>
        <mxCell id="SdnSs6TBn7ditOvQ-hDc-96" value="piattaforma_id varchar(15)" style="shape=partialRectangle;connectable=0;fillColor=none;top=0;left=0;bottom=0;right=0;align=left;spacingLeft=6;fontStyle=5;overflow=hidden;whiteSpace=wrap;html=1;" vertex="1" parent="SdnSs6TBn7ditOvQ-hDc-94">
          <mxGeometry x="30" width="223" height="40" as="geometry">
            <mxRectangle width="223" height="40" as="alternateBounds" />
          </mxGeometry>
        </mxCell>
        <mxCell id="SdnSs6TBn7ditOvQ-hDc-97" value="" style="shape=tableRow;horizontal=0;startSize=0;swimlaneHead=0;swimlaneBody=0;fillColor=none;collapsible=0;dropTarget=0;points=[[0,0.5],[1,0.5]];portConstraint=eastwest;top=0;left=0;right=0;bottom=0;" vertex="1" parent="SdnSs6TBn7ditOvQ-hDc-93">
          <mxGeometry y="70" width="253" height="25" as="geometry" />
        </mxCell>
        <mxCell id="SdnSs6TBn7ditOvQ-hDc-98" value="" style="shape=partialRectangle;connectable=0;fillColor=none;top=0;left=0;bottom=0;right=0;editable=1;overflow=hidden;whiteSpace=wrap;html=1;" vertex="1" parent="SdnSs6TBn7ditOvQ-hDc-97">
          <mxGeometry width="30" height="25" as="geometry">
            <mxRectangle width="30" height="25" as="alternateBounds" />
          </mxGeometry>
        </mxCell>
        <mxCell id="SdnSs6TBn7ditOvQ-hDc-99" value="nome varchar (50) NOT NULL" style="shape=partialRectangle;connectable=0;fillColor=none;top=0;left=0;bottom=0;right=0;align=left;spacingLeft=6;overflow=hidden;whiteSpace=wrap;html=1;fontSize=10;" vertex="1" parent="SdnSs6TBn7ditOvQ-hDc-97">
          <mxGeometry x="30" width="223" height="25" as="geometry">
            <mxRectangle width="223" height="25" as="alternateBounds" />
          </mxGeometry>
        </mxCell>
        <mxCell id="SdnSs6TBn7ditOvQ-hDc-100" value="" style="shape=tableRow;horizontal=0;startSize=0;swimlaneHead=0;swimlaneBody=0;fillColor=none;collapsible=0;dropTarget=0;points=[[0,0.5],[1,0.5]];portConstraint=eastwest;top=0;left=0;right=0;bottom=0;" vertex="1" parent="SdnSs6TBn7ditOvQ-hDc-93">
          <mxGeometry y="95" width="253" height="30" as="geometry" />
        </mxCell>
        <mxCell id="SdnSs6TBn7ditOvQ-hDc-101" value="" style="shape=partialRectangle;connectable=0;fillColor=none;top=0;left=0;bottom=0;right=0;editable=1;overflow=hidden;whiteSpace=wrap;html=1;" vertex="1" parent="SdnSs6TBn7ditOvQ-hDc-100">
          <mxGeometry width="30" height="30" as="geometry">
            <mxRectangle width="30" height="30" as="alternateBounds" />
          </mxGeometry>
        </mxCell>
        <mxCell id="SdnSs6TBn7ditOvQ-hDc-102" value="&lt;font style=&quot;font-size: 10px;&quot;&gt;costruttore varchar(50) NOT NULL&lt;/font&gt;" style="shape=partialRectangle;connectable=0;fillColor=none;top=0;left=0;bottom=0;right=0;align=left;spacingLeft=6;overflow=hidden;whiteSpace=wrap;html=1;" vertex="1" parent="SdnSs6TBn7ditOvQ-hDc-100">
          <mxGeometry x="30" width="223" height="30" as="geometry">
            <mxRectangle width="223" height="30" as="alternateBounds" />
          </mxGeometry>
        </mxCell>
        <mxCell id="SdnSs6TBn7ditOvQ-hDc-106" value="videogiocatore" style="shape=table;startSize=30;container=1;collapsible=1;childLayout=tableLayout;fixedRows=1;rowLines=0;fontStyle=1;align=center;resizeLast=1;html=1;" vertex="1" parent="1">
          <mxGeometry x="-435" y="-630" width="215" height="210" as="geometry" />
        </mxCell>
        <mxCell id="SdnSs6TBn7ditOvQ-hDc-107" value="" style="shape=tableRow;horizontal=0;startSize=0;swimlaneHead=0;swimlaneBody=0;fillColor=none;collapsible=0;dropTarget=0;points=[[0,0.5],[1,0.5]];portConstraint=eastwest;top=0;left=0;right=0;bottom=1;" vertex="1" parent="SdnSs6TBn7ditOvQ-hDc-106">
          <mxGeometry y="30" width="215" height="30" as="geometry" />
        </mxCell>
        <mxCell id="SdnSs6TBn7ditOvQ-hDc-108" value="PK" style="shape=partialRectangle;connectable=0;fillColor=none;top=0;left=0;bottom=0;right=0;fontStyle=1;overflow=hidden;whiteSpace=wrap;html=1;" vertex="1" parent="SdnSs6TBn7ditOvQ-hDc-107">
          <mxGeometry width="30" height="30" as="geometry">
            <mxRectangle width="30" height="30" as="alternateBounds" />
          </mxGeometry>
        </mxCell>
        <mxCell id="SdnSs6TBn7ditOvQ-hDc-109" value="videogiocatore_id varchar(15)" style="shape=partialRectangle;connectable=0;fillColor=none;top=0;left=0;bottom=0;right=0;align=left;spacingLeft=6;fontStyle=5;overflow=hidden;whiteSpace=wrap;html=1;" vertex="1" parent="SdnSs6TBn7ditOvQ-hDc-107">
          <mxGeometry x="30" width="185" height="30" as="geometry">
            <mxRectangle width="185" height="30" as="alternateBounds" />
          </mxGeometry>
        </mxCell>
        <mxCell id="SdnSs6TBn7ditOvQ-hDc-110" value="" style="shape=tableRow;horizontal=0;startSize=0;swimlaneHead=0;swimlaneBody=0;fillColor=none;collapsible=0;dropTarget=0;points=[[0,0.5],[1,0.5]];portConstraint=eastwest;top=0;left=0;right=0;bottom=0;" vertex="1" parent="SdnSs6TBn7ditOvQ-hDc-106">
          <mxGeometry y="60" width="215" height="30" as="geometry" />
        </mxCell>
        <mxCell id="SdnSs6TBn7ditOvQ-hDc-111" value="" style="shape=partialRectangle;connectable=0;fillColor=none;top=0;left=0;bottom=0;right=0;editable=1;overflow=hidden;whiteSpace=wrap;html=1;" vertex="1" parent="SdnSs6TBn7ditOvQ-hDc-110">
          <mxGeometry width="30" height="30" as="geometry">
            <mxRectangle width="30" height="30" as="alternateBounds" />
          </mxGeometry>
        </mxCell>
        <mxCell id="SdnSs6TBn7ditOvQ-hDc-112" value="&lt;font style=&quot;font-size: 10px;&quot;&gt;nome &lt;font style=&quot;font-size: 10px;&quot;&gt;varchar(50) NOT NULL&lt;/font&gt;&lt;/font&gt;" style="shape=partialRectangle;connectable=0;fillColor=none;top=0;left=0;bottom=0;right=0;align=left;spacingLeft=6;overflow=hidden;whiteSpace=wrap;html=1;" vertex="1" parent="SdnSs6TBn7ditOvQ-hDc-110">
          <mxGeometry x="30" width="185" height="30" as="geometry">
            <mxRectangle width="185" height="30" as="alternateBounds" />
          </mxGeometry>
        </mxCell>
        <mxCell id="SdnSs6TBn7ditOvQ-hDc-113" value="" style="shape=tableRow;horizontal=0;startSize=0;swimlaneHead=0;swimlaneBody=0;fillColor=none;collapsible=0;dropTarget=0;points=[[0,0.5],[1,0.5]];portConstraint=eastwest;top=0;left=0;right=0;bottom=0;" vertex="1" parent="SdnSs6TBn7ditOvQ-hDc-106">
          <mxGeometry y="90" width="215" height="30" as="geometry" />
        </mxCell>
        <mxCell id="SdnSs6TBn7ditOvQ-hDc-114" value="" style="shape=partialRectangle;connectable=0;fillColor=none;top=0;left=0;bottom=0;right=0;editable=1;overflow=hidden;whiteSpace=wrap;html=1;" vertex="1" parent="SdnSs6TBn7ditOvQ-hDc-113">
          <mxGeometry width="30" height="30" as="geometry">
            <mxRectangle width="30" height="30" as="alternateBounds" />
          </mxGeometry>
        </mxCell>
        <mxCell id="SdnSs6TBn7ditOvQ-hDc-115" value="&lt;font style=&quot;font-size: 10px;&quot;&gt;cognome &lt;font style=&quot;font-size: 10px;&quot;&gt;varchar(50) NOT NULL&lt;/font&gt;&lt;/font&gt;" style="shape=partialRectangle;connectable=0;fillColor=none;top=0;left=0;bottom=0;right=0;align=left;spacingLeft=6;overflow=hidden;whiteSpace=wrap;html=1;" vertex="1" parent="SdnSs6TBn7ditOvQ-hDc-113">
          <mxGeometry x="30" width="185" height="30" as="geometry">
            <mxRectangle width="185" height="30" as="alternateBounds" />
          </mxGeometry>
        </mxCell>
        <mxCell id="SdnSs6TBn7ditOvQ-hDc-116" value="" style="shape=tableRow;horizontal=0;startSize=0;swimlaneHead=0;swimlaneBody=0;fillColor=none;collapsible=0;dropTarget=0;points=[[0,0.5],[1,0.5]];portConstraint=eastwest;top=0;left=0;right=0;bottom=0;" vertex="1" parent="SdnSs6TBn7ditOvQ-hDc-106">
          <mxGeometry y="120" width="215" height="30" as="geometry" />
        </mxCell>
        <mxCell id="SdnSs6TBn7ditOvQ-hDc-117" value="" style="shape=partialRectangle;connectable=0;fillColor=none;top=0;left=0;bottom=0;right=0;editable=1;overflow=hidden;whiteSpace=wrap;html=1;" vertex="1" parent="SdnSs6TBn7ditOvQ-hDc-116">
          <mxGeometry width="30" height="30" as="geometry">
            <mxRectangle width="30" height="30" as="alternateBounds" />
          </mxGeometry>
        </mxCell>
        <mxCell id="SdnSs6TBn7ditOvQ-hDc-118" value="&lt;font style=&quot;font-size: 10px;&quot;&gt;alias &lt;font style=&quot;font-size: 10px;&quot;&gt;varchar(50) NOT NULL&lt;/font&gt;&lt;/font&gt;" style="shape=partialRectangle;connectable=0;fillColor=none;top=0;left=0;bottom=0;right=0;align=left;spacingLeft=6;overflow=hidden;whiteSpace=wrap;html=1;" vertex="1" parent="SdnSs6TBn7ditOvQ-hDc-116">
          <mxGeometry x="30" width="185" height="30" as="geometry">
            <mxRectangle width="185" height="30" as="alternateBounds" />
          </mxGeometry>
        </mxCell>
        <mxCell id="SdnSs6TBn7ditOvQ-hDc-200" value="" style="shape=tableRow;horizontal=0;startSize=0;swimlaneHead=0;swimlaneBody=0;fillColor=none;collapsible=0;dropTarget=0;points=[[0,0.5],[1,0.5]];portConstraint=eastwest;top=0;left=0;right=0;bottom=0;fontSize=10;" vertex="1" parent="SdnSs6TBn7ditOvQ-hDc-106">
          <mxGeometry y="150" width="215" height="30" as="geometry" />
        </mxCell>
        <mxCell id="SdnSs6TBn7ditOvQ-hDc-201" value="" style="shape=partialRectangle;connectable=0;fillColor=none;top=0;left=0;bottom=0;right=0;editable=1;overflow=hidden;" vertex="1" parent="SdnSs6TBn7ditOvQ-hDc-200">
          <mxGeometry width="30" height="30" as="geometry">
            <mxRectangle width="30" height="30" as="alternateBounds" />
          </mxGeometry>
        </mxCell>
        <mxCell id="SdnSs6TBn7ditOvQ-hDc-202" value="citta varchar(50) NOT NULL" style="shape=partialRectangle;connectable=0;fillColor=none;top=0;left=0;bottom=0;right=0;align=left;spacingLeft=6;overflow=hidden;fontSize=10;" vertex="1" parent="SdnSs6TBn7ditOvQ-hDc-200">
          <mxGeometry x="30" width="185" height="30" as="geometry">
            <mxRectangle width="185" height="30" as="alternateBounds" />
          </mxGeometry>
        </mxCell>
        <mxCell id="SdnSs6TBn7ditOvQ-hDc-345" value="" style="shape=tableRow;horizontal=0;startSize=0;swimlaneHead=0;swimlaneBody=0;fillColor=none;collapsible=0;dropTarget=0;points=[[0,0.5],[1,0.5]];portConstraint=eastwest;top=0;left=0;right=0;bottom=0;" vertex="1" parent="SdnSs6TBn7ditOvQ-hDc-106">
          <mxGeometry y="180" width="215" height="30" as="geometry" />
        </mxCell>
        <mxCell id="SdnSs6TBn7ditOvQ-hDc-346" value="FK" style="shape=partialRectangle;connectable=0;fillColor=none;top=0;left=0;bottom=0;right=0;fontStyle=0;overflow=hidden;whiteSpace=wrap;html=1;" vertex="1" parent="SdnSs6TBn7ditOvQ-hDc-345">
          <mxGeometry width="30" height="30" as="geometry">
            <mxRectangle width="30" height="30" as="alternateBounds" />
          </mxGeometry>
        </mxCell>
        <mxCell id="SdnSs6TBn7ditOvQ-hDc-347" value="&lt;font style=&quot;font-size: 10px;&quot;&gt;torneo_id VARCHAR(15)&lt;/font&gt;" style="shape=partialRectangle;connectable=0;fillColor=none;top=0;left=0;bottom=0;right=0;align=left;spacingLeft=6;fontStyle=0;overflow=hidden;whiteSpace=wrap;html=1;" vertex="1" parent="SdnSs6TBn7ditOvQ-hDc-345">
          <mxGeometry x="30" width="185" height="30" as="geometry">
            <mxRectangle width="185" height="30" as="alternateBounds" />
          </mxGeometry>
        </mxCell>
        <mxCell id="SdnSs6TBn7ditOvQ-hDc-119" value="categoria" style="shape=table;startSize=30;container=1;collapsible=1;childLayout=tableLayout;fixedRows=1;rowLines=0;fontStyle=1;align=center;resizeLast=1;html=1;" vertex="1" parent="1">
          <mxGeometry x="-940" y="155" width="230" height="120" as="geometry" />
        </mxCell>
        <mxCell id="SdnSs6TBn7ditOvQ-hDc-120" value="" style="shape=tableRow;horizontal=0;startSize=0;swimlaneHead=0;swimlaneBody=0;fillColor=none;collapsible=0;dropTarget=0;points=[[0,0.5],[1,0.5]];portConstraint=eastwest;top=0;left=0;right=0;bottom=1;" vertex="1" parent="SdnSs6TBn7ditOvQ-hDc-119">
          <mxGeometry y="30" width="230" height="30" as="geometry" />
        </mxCell>
        <mxCell id="SdnSs6TBn7ditOvQ-hDc-121" value="PK" style="shape=partialRectangle;connectable=0;fillColor=none;top=0;left=0;bottom=0;right=0;fontStyle=1;overflow=hidden;whiteSpace=wrap;html=1;" vertex="1" parent="SdnSs6TBn7ditOvQ-hDc-120">
          <mxGeometry width="30" height="30" as="geometry">
            <mxRectangle width="30" height="30" as="alternateBounds" />
          </mxGeometry>
        </mxCell>
        <mxCell id="SdnSs6TBn7ditOvQ-hDc-122" value="categoria_id varchar(15)" style="shape=partialRectangle;connectable=0;fillColor=none;top=0;left=0;bottom=0;right=0;align=left;spacingLeft=6;fontStyle=5;overflow=hidden;whiteSpace=wrap;html=1;" vertex="1" parent="SdnSs6TBn7ditOvQ-hDc-120">
          <mxGeometry x="30" width="200" height="30" as="geometry">
            <mxRectangle width="200" height="30" as="alternateBounds" />
          </mxGeometry>
        </mxCell>
        <mxCell id="SdnSs6TBn7ditOvQ-hDc-123" value="" style="shape=tableRow;horizontal=0;startSize=0;swimlaneHead=0;swimlaneBody=0;fillColor=none;collapsible=0;dropTarget=0;points=[[0,0.5],[1,0.5]];portConstraint=eastwest;top=0;left=0;right=0;bottom=0;" vertex="1" parent="SdnSs6TBn7ditOvQ-hDc-119">
          <mxGeometry y="60" width="230" height="30" as="geometry" />
        </mxCell>
        <mxCell id="SdnSs6TBn7ditOvQ-hDc-124" value="" style="shape=partialRectangle;connectable=0;fillColor=none;top=0;left=0;bottom=0;right=0;editable=1;overflow=hidden;whiteSpace=wrap;html=1;" vertex="1" parent="SdnSs6TBn7ditOvQ-hDc-123">
          <mxGeometry width="30" height="30" as="geometry">
            <mxRectangle width="30" height="30" as="alternateBounds" />
          </mxGeometry>
        </mxCell>
        <mxCell id="SdnSs6TBn7ditOvQ-hDc-125" value="&lt;font style=&quot;font-size: 10px;&quot;&gt;nome varchar(50) NOT NULL&lt;/font&gt;" style="shape=partialRectangle;connectable=0;fillColor=none;top=0;left=0;bottom=0;right=0;align=left;spacingLeft=6;overflow=hidden;whiteSpace=wrap;html=1;" vertex="1" parent="SdnSs6TBn7ditOvQ-hDc-123">
          <mxGeometry x="30" width="200" height="30" as="geometry">
            <mxRectangle width="200" height="30" as="alternateBounds" />
          </mxGeometry>
        </mxCell>
        <mxCell id="SdnSs6TBn7ditOvQ-hDc-271" value="" style="shape=tableRow;horizontal=0;startSize=0;swimlaneHead=0;swimlaneBody=0;fillColor=none;collapsible=0;dropTarget=0;points=[[0,0.5],[1,0.5]];portConstraint=eastwest;top=0;left=0;right=0;bottom=0;" vertex="1" parent="SdnSs6TBn7ditOvQ-hDc-119">
          <mxGeometry y="90" width="230" height="30" as="geometry" />
        </mxCell>
        <mxCell id="SdnSs6TBn7ditOvQ-hDc-272" value="FK" style="shape=partialRectangle;connectable=0;fillColor=none;top=0;left=0;bottom=0;right=0;fontStyle=0;overflow=hidden;whiteSpace=wrap;html=1;" vertex="1" parent="SdnSs6TBn7ditOvQ-hDc-271">
          <mxGeometry width="30" height="30" as="geometry">
            <mxRectangle width="30" height="30" as="alternateBounds" />
          </mxGeometry>
        </mxCell>
        <mxCell id="SdnSs6TBn7ditOvQ-hDc-273" value="&lt;font style=&quot;font-size: 10px;&quot;&gt;videogame_id varchar(15) NOT NULL&lt;/font&gt;" style="shape=partialRectangle;connectable=0;fillColor=none;top=0;left=0;bottom=0;right=0;align=left;spacingLeft=6;fontStyle=0;overflow=hidden;whiteSpace=wrap;html=1;" vertex="1" parent="SdnSs6TBn7ditOvQ-hDc-271">
          <mxGeometry x="30" width="200" height="30" as="geometry">
            <mxRectangle width="200" height="30" as="alternateBounds" />
          </mxGeometry>
        </mxCell>
        <mxCell id="SdnSs6TBn7ditOvQ-hDc-132" value="classificazione" style="shape=table;startSize=30;container=1;collapsible=1;childLayout=tableLayout;fixedRows=1;rowLines=0;fontStyle=1;align=center;resizeLast=1;html=1;" vertex="1" parent="1">
          <mxGeometry x="-595" y="20" width="235" height="115" as="geometry" />
        </mxCell>
        <mxCell id="SdnSs6TBn7ditOvQ-hDc-133" value="" style="shape=tableRow;horizontal=0;startSize=0;swimlaneHead=0;swimlaneBody=0;fillColor=none;collapsible=0;dropTarget=0;points=[[0,0.5],[1,0.5]];portConstraint=eastwest;top=0;left=0;right=0;bottom=1;" vertex="1" parent="SdnSs6TBn7ditOvQ-hDc-132">
          <mxGeometry y="30" width="235" height="30" as="geometry" />
        </mxCell>
        <mxCell id="SdnSs6TBn7ditOvQ-hDc-134" value="PK" style="shape=partialRectangle;connectable=0;fillColor=none;top=0;left=0;bottom=0;right=0;fontStyle=1;overflow=hidden;whiteSpace=wrap;html=1;" vertex="1" parent="SdnSs6TBn7ditOvQ-hDc-133">
          <mxGeometry width="30" height="30" as="geometry">
            <mxRectangle width="30" height="30" as="alternateBounds" />
          </mxGeometry>
        </mxCell>
        <mxCell id="SdnSs6TBn7ditOvQ-hDc-135" value="classificazione_id varchar(15)" style="shape=partialRectangle;connectable=0;fillColor=none;top=0;left=0;bottom=0;right=0;align=left;spacingLeft=6;fontStyle=5;overflow=hidden;whiteSpace=wrap;html=1;" vertex="1" parent="SdnSs6TBn7ditOvQ-hDc-133">
          <mxGeometry x="30" width="205" height="30" as="geometry">
            <mxRectangle width="205" height="30" as="alternateBounds" />
          </mxGeometry>
        </mxCell>
        <mxCell id="SdnSs6TBn7ditOvQ-hDc-136" value="" style="shape=tableRow;horizontal=0;startSize=0;swimlaneHead=0;swimlaneBody=0;fillColor=none;collapsible=0;dropTarget=0;points=[[0,0.5],[1,0.5]];portConstraint=eastwest;top=0;left=0;right=0;bottom=0;" vertex="1" parent="SdnSs6TBn7ditOvQ-hDc-132">
          <mxGeometry y="60" width="235" height="25" as="geometry" />
        </mxCell>
        <mxCell id="SdnSs6TBn7ditOvQ-hDc-137" value="" style="shape=partialRectangle;connectable=0;fillColor=none;top=0;left=0;bottom=0;right=0;editable=1;overflow=hidden;whiteSpace=wrap;html=1;" vertex="1" parent="SdnSs6TBn7ditOvQ-hDc-136">
          <mxGeometry width="30" height="25" as="geometry">
            <mxRectangle width="30" height="25" as="alternateBounds" />
          </mxGeometry>
        </mxCell>
        <mxCell id="SdnSs6TBn7ditOvQ-hDc-138" value="&lt;font style=&quot;font-size: 10px;&quot;&gt;nome varchar(30) NOT NULL&lt;/font&gt;" style="shape=partialRectangle;connectable=0;fillColor=none;top=0;left=0;bottom=0;right=0;align=left;spacingLeft=6;overflow=hidden;whiteSpace=wrap;html=1;" vertex="1" parent="SdnSs6TBn7ditOvQ-hDc-136">
          <mxGeometry x="30" width="205" height="25" as="geometry">
            <mxRectangle width="205" height="25" as="alternateBounds" />
          </mxGeometry>
        </mxCell>
        <mxCell id="SdnSs6TBn7ditOvQ-hDc-289" value="" style="shape=tableRow;horizontal=0;startSize=0;swimlaneHead=0;swimlaneBody=0;fillColor=none;collapsible=0;dropTarget=0;points=[[0,0.5],[1,0.5]];portConstraint=eastwest;top=0;left=0;right=0;bottom=0;" vertex="1" parent="SdnSs6TBn7ditOvQ-hDc-132">
          <mxGeometry y="85" width="235" height="30" as="geometry" />
        </mxCell>
        <mxCell id="SdnSs6TBn7ditOvQ-hDc-290" value="FK" style="shape=partialRectangle;connectable=0;fillColor=none;top=0;left=0;bottom=0;right=0;fontStyle=0;overflow=hidden;whiteSpace=wrap;html=1;" vertex="1" parent="SdnSs6TBn7ditOvQ-hDc-289">
          <mxGeometry width="30" height="30" as="geometry">
            <mxRectangle width="30" height="30" as="alternateBounds" />
          </mxGeometry>
        </mxCell>
        <mxCell id="SdnSs6TBn7ditOvQ-hDc-291" value="&lt;font style=&quot;font-size: 10px;&quot;&gt;videogioco_id varchar(15)&lt;/font&gt;" style="shape=partialRectangle;connectable=0;fillColor=none;top=0;left=0;bottom=0;right=0;align=left;spacingLeft=6;fontStyle=0;overflow=hidden;whiteSpace=wrap;html=1;" vertex="1" parent="SdnSs6TBn7ditOvQ-hDc-289">
          <mxGeometry x="30" width="205" height="30" as="geometry">
            <mxRectangle width="205" height="30" as="alternateBounds" />
          </mxGeometry>
        </mxCell>
        <mxCell id="SdnSs6TBn7ditOvQ-hDc-145" value="torneo" style="shape=table;startSize=30;container=1;collapsible=1;childLayout=tableLayout;fixedRows=1;rowLines=0;fontStyle=1;align=center;resizeLast=1;html=1;" vertex="1" parent="1">
          <mxGeometry x="-1110" y="-615" width="200" height="150" as="geometry" />
        </mxCell>
        <mxCell id="SdnSs6TBn7ditOvQ-hDc-146" value="" style="shape=tableRow;horizontal=0;startSize=0;swimlaneHead=0;swimlaneBody=0;fillColor=none;collapsible=0;dropTarget=0;points=[[0,0.5],[1,0.5]];portConstraint=eastwest;top=0;left=0;right=0;bottom=1;" vertex="1" parent="SdnSs6TBn7ditOvQ-hDc-145">
          <mxGeometry y="30" width="200" height="30" as="geometry" />
        </mxCell>
        <mxCell id="SdnSs6TBn7ditOvQ-hDc-147" value="PK" style="shape=partialRectangle;connectable=0;fillColor=none;top=0;left=0;bottom=0;right=0;fontStyle=1;overflow=hidden;whiteSpace=wrap;html=1;" vertex="1" parent="SdnSs6TBn7ditOvQ-hDc-146">
          <mxGeometry width="30" height="30" as="geometry">
            <mxRectangle width="30" height="30" as="alternateBounds" />
          </mxGeometry>
        </mxCell>
        <mxCell id="SdnSs6TBn7ditOvQ-hDc-148" value="torneo_id varchar(15)" style="shape=partialRectangle;connectable=0;fillColor=none;top=0;left=0;bottom=0;right=0;align=left;spacingLeft=6;fontStyle=5;overflow=hidden;whiteSpace=wrap;html=1;" vertex="1" parent="SdnSs6TBn7ditOvQ-hDc-146">
          <mxGeometry x="30" width="170" height="30" as="geometry">
            <mxRectangle width="170" height="30" as="alternateBounds" />
          </mxGeometry>
        </mxCell>
        <mxCell id="SdnSs6TBn7ditOvQ-hDc-149" value="" style="shape=tableRow;horizontal=0;startSize=0;swimlaneHead=0;swimlaneBody=0;fillColor=none;collapsible=0;dropTarget=0;points=[[0,0.5],[1,0.5]];portConstraint=eastwest;top=0;left=0;right=0;bottom=0;" vertex="1" parent="SdnSs6TBn7ditOvQ-hDc-145">
          <mxGeometry y="60" width="200" height="30" as="geometry" />
        </mxCell>
        <mxCell id="SdnSs6TBn7ditOvQ-hDc-150" value="" style="shape=partialRectangle;connectable=0;fillColor=none;top=0;left=0;bottom=0;right=0;editable=1;overflow=hidden;whiteSpace=wrap;html=1;" vertex="1" parent="SdnSs6TBn7ditOvQ-hDc-149">
          <mxGeometry width="30" height="30" as="geometry">
            <mxRectangle width="30" height="30" as="alternateBounds" />
          </mxGeometry>
        </mxCell>
        <mxCell id="SdnSs6TBn7ditOvQ-hDc-151" value="&lt;font style=&quot;font-size: 10px;&quot;&gt;nome &lt;font style=&quot;font-size: 10px;&quot;&gt;varchar(100) NOT NULL&lt;/font&gt;&lt;/font&gt;" style="shape=partialRectangle;connectable=0;fillColor=none;top=0;left=0;bottom=0;right=0;align=left;spacingLeft=6;overflow=hidden;whiteSpace=wrap;html=1;" vertex="1" parent="SdnSs6TBn7ditOvQ-hDc-149">
          <mxGeometry x="30" width="170" height="30" as="geometry">
            <mxRectangle width="170" height="30" as="alternateBounds" />
          </mxGeometry>
        </mxCell>
        <mxCell id="SdnSs6TBn7ditOvQ-hDc-152" value="" style="shape=tableRow;horizontal=0;startSize=0;swimlaneHead=0;swimlaneBody=0;fillColor=none;collapsible=0;dropTarget=0;points=[[0,0.5],[1,0.5]];portConstraint=eastwest;top=0;left=0;right=0;bottom=0;" vertex="1" parent="SdnSs6TBn7ditOvQ-hDc-145">
          <mxGeometry y="90" width="200" height="30" as="geometry" />
        </mxCell>
        <mxCell id="SdnSs6TBn7ditOvQ-hDc-153" value="" style="shape=partialRectangle;connectable=0;fillColor=none;top=0;left=0;bottom=0;right=0;editable=1;overflow=hidden;whiteSpace=wrap;html=1;" vertex="1" parent="SdnSs6TBn7ditOvQ-hDc-152">
          <mxGeometry width="30" height="30" as="geometry">
            <mxRectangle width="30" height="30" as="alternateBounds" />
          </mxGeometry>
        </mxCell>
        <mxCell id="SdnSs6TBn7ditOvQ-hDc-154" value="&lt;font style=&quot;font-size: 10px;&quot;&gt;citta &lt;font style=&quot;font-size: 10px;&quot;&gt;varchar(50) NOT NULL&lt;/font&gt;&lt;/font&gt;" style="shape=partialRectangle;connectable=0;fillColor=none;top=0;left=0;bottom=0;right=0;align=left;spacingLeft=6;overflow=hidden;whiteSpace=wrap;html=1;" vertex="1" parent="SdnSs6TBn7ditOvQ-hDc-152">
          <mxGeometry x="30" width="170" height="30" as="geometry">
            <mxRectangle width="170" height="30" as="alternateBounds" />
          </mxGeometry>
        </mxCell>
        <mxCell id="SdnSs6TBn7ditOvQ-hDc-303" value="" style="shape=tableRow;horizontal=0;startSize=0;swimlaneHead=0;swimlaneBody=0;fillColor=none;collapsible=0;dropTarget=0;points=[[0,0.5],[1,0.5]];portConstraint=eastwest;top=0;left=0;right=0;bottom=0;" vertex="1" parent="SdnSs6TBn7ditOvQ-hDc-145">
          <mxGeometry y="120" width="200" height="30" as="geometry" />
        </mxCell>
        <mxCell id="SdnSs6TBn7ditOvQ-hDc-304" value="" style="shape=partialRectangle;connectable=0;fillColor=none;top=0;left=0;bottom=0;right=0;editable=1;overflow=hidden;" vertex="1" parent="SdnSs6TBn7ditOvQ-hDc-303">
          <mxGeometry width="30" height="30" as="geometry">
            <mxRectangle width="30" height="30" as="alternateBounds" />
          </mxGeometry>
        </mxCell>
        <mxCell id="SdnSs6TBn7ditOvQ-hDc-305" value="anno int  NOT NULL" style="shape=partialRectangle;connectable=0;fillColor=none;top=0;left=0;bottom=0;right=0;align=left;spacingLeft=6;overflow=hidden;fontSize=10;" vertex="1" parent="SdnSs6TBn7ditOvQ-hDc-303">
          <mxGeometry x="30" width="170" height="30" as="geometry">
            <mxRectangle width="170" height="30" as="alternateBounds" />
          </mxGeometry>
        </mxCell>
        <mxCell id="SdnSs6TBn7ditOvQ-hDc-158" value="recensione" style="shape=table;startSize=30;container=1;collapsible=1;childLayout=tableLayout;fixedRows=1;rowLines=0;fontStyle=1;align=center;resizeLast=1;html=1;" vertex="1" parent="1">
          <mxGeometry x="-225" y="-413" width="210" height="158" as="geometry" />
        </mxCell>
        <mxCell id="SdnSs6TBn7ditOvQ-hDc-159" value="" style="shape=tableRow;horizontal=0;startSize=0;swimlaneHead=0;swimlaneBody=0;fillColor=none;collapsible=0;dropTarget=0;points=[[0,0.5],[1,0.5]];portConstraint=eastwest;top=0;left=0;right=0;bottom=1;" vertex="1" parent="SdnSs6TBn7ditOvQ-hDc-158">
          <mxGeometry y="30" width="210" height="30" as="geometry" />
        </mxCell>
        <mxCell id="SdnSs6TBn7ditOvQ-hDc-160" value="PK" style="shape=partialRectangle;connectable=0;fillColor=none;top=0;left=0;bottom=0;right=0;fontStyle=1;overflow=hidden;whiteSpace=wrap;html=1;" vertex="1" parent="SdnSs6TBn7ditOvQ-hDc-159">
          <mxGeometry width="30" height="30" as="geometry">
            <mxRectangle width="30" height="30" as="alternateBounds" />
          </mxGeometry>
        </mxCell>
        <mxCell id="SdnSs6TBn7ditOvQ-hDc-161" value="recensione_id&amp;nbsp; varchar(15)" style="shape=partialRectangle;connectable=0;fillColor=none;top=0;left=0;bottom=0;right=0;align=left;spacingLeft=6;fontStyle=5;overflow=hidden;whiteSpace=wrap;html=1;" vertex="1" parent="SdnSs6TBn7ditOvQ-hDc-159">
          <mxGeometry x="30" width="180" height="30" as="geometry">
            <mxRectangle width="180" height="30" as="alternateBounds" />
          </mxGeometry>
        </mxCell>
        <mxCell id="SdnSs6TBn7ditOvQ-hDc-162" value="" style="shape=tableRow;horizontal=0;startSize=0;swimlaneHead=0;swimlaneBody=0;fillColor=none;collapsible=0;dropTarget=0;points=[[0,0.5],[1,0.5]];portConstraint=eastwest;top=0;left=0;right=0;bottom=0;" vertex="1" parent="SdnSs6TBn7ditOvQ-hDc-158">
          <mxGeometry y="60" width="210" height="30" as="geometry" />
        </mxCell>
        <mxCell id="SdnSs6TBn7ditOvQ-hDc-163" value="" style="shape=partialRectangle;connectable=0;fillColor=none;top=0;left=0;bottom=0;right=0;editable=1;overflow=hidden;whiteSpace=wrap;html=1;" vertex="1" parent="SdnSs6TBn7ditOvQ-hDc-162">
          <mxGeometry width="30" height="30" as="geometry">
            <mxRectangle width="30" height="30" as="alternateBounds" />
          </mxGeometry>
        </mxCell>
        <mxCell id="SdnSs6TBn7ditOvQ-hDc-164" value="&lt;font style=&quot;font-size: 10px;&quot;&gt;voto tinyint NOT NULL&lt;/font&gt;" style="shape=partialRectangle;connectable=0;fillColor=none;top=0;left=0;bottom=0;right=0;align=left;spacingLeft=6;overflow=hidden;whiteSpace=wrap;html=1;" vertex="1" parent="SdnSs6TBn7ditOvQ-hDc-162">
          <mxGeometry x="30" width="180" height="30" as="geometry">
            <mxRectangle width="180" height="30" as="alternateBounds" />
          </mxGeometry>
        </mxCell>
        <mxCell id="SdnSs6TBn7ditOvQ-hDc-370" value="" style="shape=tableRow;horizontal=0;startSize=0;swimlaneHead=0;swimlaneBody=0;fillColor=none;collapsible=0;dropTarget=0;points=[[0,0.5],[1,0.5]];portConstraint=eastwest;top=0;left=0;right=0;bottom=0;" vertex="1" parent="SdnSs6TBn7ditOvQ-hDc-158">
          <mxGeometry y="90" width="210" height="38" as="geometry" />
        </mxCell>
        <mxCell id="SdnSs6TBn7ditOvQ-hDc-371" value="FK" style="shape=partialRectangle;connectable=0;fillColor=none;top=0;left=0;bottom=0;right=0;fontStyle=0;overflow=hidden;whiteSpace=wrap;html=1;" vertex="1" parent="SdnSs6TBn7ditOvQ-hDc-370">
          <mxGeometry width="30" height="38" as="geometry">
            <mxRectangle width="30" height="38" as="alternateBounds" />
          </mxGeometry>
        </mxCell>
        <mxCell id="SdnSs6TBn7ditOvQ-hDc-372" value="&lt;font style=&quot;font-size: 10px;&quot;&gt;videogiocatore_id varchar(15)&lt;/font&gt;" style="shape=partialRectangle;connectable=0;fillColor=none;top=0;left=0;bottom=0;right=0;align=left;spacingLeft=6;fontStyle=0;overflow=hidden;whiteSpace=wrap;html=1;" vertex="1" parent="SdnSs6TBn7ditOvQ-hDc-370">
          <mxGeometry x="30" width="180" height="38" as="geometry">
            <mxRectangle width="180" height="38" as="alternateBounds" />
          </mxGeometry>
        </mxCell>
        <mxCell id="SdnSs6TBn7ditOvQ-hDc-362" value="" style="shape=tableRow;horizontal=0;startSize=0;swimlaneHead=0;swimlaneBody=0;fillColor=none;collapsible=0;dropTarget=0;points=[[0,0.5],[1,0.5]];portConstraint=eastwest;top=0;left=0;right=0;bottom=0;" vertex="1" parent="SdnSs6TBn7ditOvQ-hDc-158">
          <mxGeometry y="128" width="210" height="30" as="geometry" />
        </mxCell>
        <mxCell id="SdnSs6TBn7ditOvQ-hDc-363" value="FK" style="shape=partialRectangle;connectable=0;fillColor=none;top=0;left=0;bottom=0;right=0;fontStyle=0;overflow=hidden;whiteSpace=wrap;html=1;" vertex="1" parent="SdnSs6TBn7ditOvQ-hDc-362">
          <mxGeometry width="30" height="30" as="geometry">
            <mxRectangle width="30" height="30" as="alternateBounds" />
          </mxGeometry>
        </mxCell>
        <mxCell id="SdnSs6TBn7ditOvQ-hDc-364" value="&lt;font style=&quot;font-size: 10px;&quot;&gt;videogioco_id varchar(15)&lt;/font&gt;" style="shape=partialRectangle;connectable=0;fillColor=none;top=0;left=0;bottom=0;right=0;align=left;spacingLeft=6;fontStyle=0;overflow=hidden;whiteSpace=wrap;html=1;" vertex="1" parent="SdnSs6TBn7ditOvQ-hDc-362">
          <mxGeometry x="30" width="180" height="30" as="geometry">
            <mxRectangle width="180" height="30" as="alternateBounds" />
          </mxGeometry>
        </mxCell>
        <mxCell id="SdnSs6TBn7ditOvQ-hDc-171" value="Premio" style="shape=table;startSize=25;container=1;collapsible=1;childLayout=tableLayout;fixedRows=1;rowLines=0;fontStyle=1;align=center;resizeLast=1;html=1;" vertex="1" parent="1">
          <mxGeometry x="-1675" y="-555" width="240" height="120" as="geometry" />
        </mxCell>
        <mxCell id="SdnSs6TBn7ditOvQ-hDc-172" value="" style="shape=tableRow;horizontal=0;startSize=0;swimlaneHead=0;swimlaneBody=0;fillColor=none;collapsible=0;dropTarget=0;points=[[0,0.5],[1,0.5]];portConstraint=eastwest;top=0;left=0;right=0;bottom=1;" vertex="1" parent="SdnSs6TBn7ditOvQ-hDc-171">
          <mxGeometry y="25" width="240" height="30" as="geometry" />
        </mxCell>
        <mxCell id="SdnSs6TBn7ditOvQ-hDc-173" value="PK" style="shape=partialRectangle;connectable=0;fillColor=none;top=0;left=0;bottom=0;right=0;fontStyle=1;overflow=hidden;whiteSpace=wrap;html=1;" vertex="1" parent="SdnSs6TBn7ditOvQ-hDc-172">
          <mxGeometry width="30" height="30" as="geometry">
            <mxRectangle width="30" height="30" as="alternateBounds" />
          </mxGeometry>
        </mxCell>
        <mxCell id="SdnSs6TBn7ditOvQ-hDc-174" value="premio_id varchar(15)" style="shape=partialRectangle;connectable=0;fillColor=none;top=0;left=0;bottom=0;right=0;align=left;spacingLeft=6;fontStyle=5;overflow=hidden;whiteSpace=wrap;html=1;" vertex="1" parent="SdnSs6TBn7ditOvQ-hDc-172">
          <mxGeometry x="30" width="210" height="30" as="geometry">
            <mxRectangle width="210" height="30" as="alternateBounds" />
          </mxGeometry>
        </mxCell>
        <mxCell id="SdnSs6TBn7ditOvQ-hDc-175" value="" style="shape=tableRow;horizontal=0;startSize=0;swimlaneHead=0;swimlaneBody=0;fillColor=none;collapsible=0;dropTarget=0;points=[[0,0.5],[1,0.5]];portConstraint=eastwest;top=0;left=0;right=0;bottom=0;" vertex="1" parent="SdnSs6TBn7ditOvQ-hDc-171">
          <mxGeometry y="55" width="240" height="30" as="geometry" />
        </mxCell>
        <mxCell id="SdnSs6TBn7ditOvQ-hDc-176" value="" style="shape=partialRectangle;connectable=0;fillColor=none;top=0;left=0;bottom=0;right=0;editable=1;overflow=hidden;whiteSpace=wrap;html=1;" vertex="1" parent="SdnSs6TBn7ditOvQ-hDc-175">
          <mxGeometry width="30" height="30" as="geometry">
            <mxRectangle width="30" height="30" as="alternateBounds" />
          </mxGeometry>
        </mxCell>
        <mxCell id="SdnSs6TBn7ditOvQ-hDc-177" value="&lt;font style=&quot;font-size: 10px;&quot;&gt;nome varchar(50) NOT NULL&lt;/font&gt;" style="shape=partialRectangle;connectable=0;fillColor=none;top=0;left=0;bottom=0;right=0;align=left;spacingLeft=6;overflow=hidden;whiteSpace=wrap;html=1;" vertex="1" parent="SdnSs6TBn7ditOvQ-hDc-175">
          <mxGeometry x="30" width="210" height="30" as="geometry">
            <mxRectangle width="210" height="30" as="alternateBounds" />
          </mxGeometry>
        </mxCell>
        <mxCell id="SdnSs6TBn7ditOvQ-hDc-312" value="" style="shape=tableRow;horizontal=0;startSize=0;swimlaneHead=0;swimlaneBody=0;fillColor=none;collapsible=0;dropTarget=0;points=[[0,0.5],[1,0.5]];portConstraint=eastwest;top=0;left=0;right=0;bottom=0;" vertex="1" parent="SdnSs6TBn7ditOvQ-hDc-171">
          <mxGeometry y="85" width="240" height="30" as="geometry" />
        </mxCell>
        <mxCell id="SdnSs6TBn7ditOvQ-hDc-313" value="FK" style="shape=partialRectangle;connectable=0;fillColor=none;top=0;left=0;bottom=0;right=0;fontStyle=0;overflow=hidden;whiteSpace=wrap;html=1;" vertex="1" parent="SdnSs6TBn7ditOvQ-hDc-312">
          <mxGeometry width="30" height="30" as="geometry">
            <mxRectangle width="30" height="30" as="alternateBounds" />
          </mxGeometry>
        </mxCell>
        <mxCell id="SdnSs6TBn7ditOvQ-hDc-314" value="&lt;font style=&quot;font-size: 10px;&quot;&gt;videogioco_id varchar(50) NOT NULL&lt;br&gt;&lt;/font&gt;" style="shape=partialRectangle;connectable=0;fillColor=none;top=0;left=0;bottom=0;right=0;align=left;spacingLeft=6;fontStyle=0;overflow=hidden;whiteSpace=wrap;html=1;" vertex="1" parent="SdnSs6TBn7ditOvQ-hDc-312">
          <mxGeometry x="30" width="210" height="30" as="geometry">
            <mxRectangle width="210" height="30" as="alternateBounds" />
          </mxGeometry>
        </mxCell>
        <mxCell id="SdnSs6TBn7ditOvQ-hDc-385" style="edgeStyle=orthogonalEdgeStyle;rounded=0;orthogonalLoop=1;jettySize=auto;html=1;" edge="1" parent="1" source="SdnSs6TBn7ditOvQ-hDc-207">
          <mxGeometry relative="1" as="geometry">
            <mxPoint x="-830" y="145" as="targetPoint" />
          </mxGeometry>
        </mxCell>
        <mxCell id="SdnSs6TBn7ditOvQ-hDc-386" style="edgeStyle=orthogonalEdgeStyle;rounded=0;orthogonalLoop=1;jettySize=auto;html=1;" edge="1" parent="1" source="SdnSs6TBn7ditOvQ-hDc-207">
          <mxGeometry relative="1" as="geometry">
            <mxPoint x="-830" y="-55" as="targetPoint" />
          </mxGeometry>
        </mxCell>
        <mxCell id="SdnSs6TBn7ditOvQ-hDc-207" value="Relationship" style="shape=rhombus;double=1;perimeter=rhombusPerimeter;whiteSpace=wrap;html=1;align=center;" vertex="1" parent="1">
          <mxGeometry x="-890" y="10" width="120" height="60" as="geometry" />
        </mxCell>
        <mxCell id="SdnSs6TBn7ditOvQ-hDc-223" value="1" style="text;strokeColor=none;fillColor=none;spacingLeft=4;spacingRight=4;overflow=hidden;rotatable=0;points=[[0,0.5],[1,0.5]];portConstraint=eastwest;fontSize=12;whiteSpace=wrap;html=1;" vertex="1" parent="1">
          <mxGeometry x="-445" y="-160" width="40" height="30" as="geometry" />
        </mxCell>
        <mxCell id="SdnSs6TBn7ditOvQ-hDc-276" style="edgeStyle=orthogonalEdgeStyle;rounded=0;orthogonalLoop=1;jettySize=auto;html=1;entryX=0.99;entryY=0.18;entryDx=0;entryDy=0;entryPerimeter=0;" edge="1" parent="1" source="SdnSs6TBn7ditOvQ-hDc-224" target="SdnSs6TBn7ditOvQ-hDc-97">
          <mxGeometry relative="1" as="geometry" />
        </mxCell>
        <mxCell id="SdnSs6TBn7ditOvQ-hDc-391" style="edgeStyle=orthogonalEdgeStyle;rounded=0;orthogonalLoop=1;jettySize=auto;html=1;entryX=0.45;entryY=1.167;entryDx=0;entryDy=0;entryPerimeter=0;" edge="1" parent="1" source="SdnSs6TBn7ditOvQ-hDc-224" target="SdnSs6TBn7ditOvQ-hDc-230">
          <mxGeometry relative="1" as="geometry" />
        </mxCell>
        <mxCell id="SdnSs6TBn7ditOvQ-hDc-224" value="Relationship" style="shape=rhombus;double=1;perimeter=rhombusPerimeter;whiteSpace=wrap;html=1;align=center;" vertex="1" parent="1">
          <mxGeometry x="-1286" y="-190" width="120" height="60" as="geometry" />
        </mxCell>
        <mxCell id="SdnSs6TBn7ditOvQ-hDc-230" value="*" style="text;strokeColor=none;fillColor=none;spacingLeft=4;spacingRight=4;overflow=hidden;rotatable=0;points=[[0,0.5],[1,0.5]];portConstraint=eastwest;fontSize=12;whiteSpace=wrap;html=1;" vertex="1" parent="1">
          <mxGeometry x="-990" y="-195" width="40" height="30" as="geometry" />
        </mxCell>
        <mxCell id="SdnSs6TBn7ditOvQ-hDc-231" value="*" style="text;strokeColor=none;fillColor=none;spacingLeft=4;spacingRight=4;overflow=hidden;rotatable=0;points=[[0,0.5],[1,0.5]];portConstraint=eastwest;fontSize=12;whiteSpace=wrap;html=1;" vertex="1" parent="1">
          <mxGeometry x="-1415" y="-200" width="40" height="30" as="geometry" />
        </mxCell>
        <mxCell id="SdnSs6TBn7ditOvQ-hDc-243" value="videogame_piattaforma" style="shape=table;startSize=30;container=1;collapsible=1;childLayout=tableLayout;fixedRows=1;rowLines=0;fontStyle=1;align=center;resizeLast=1;html=1;fontSize=10;" vertex="1" parent="1">
          <mxGeometry x="-1323.5" y="-280" width="195" height="90" as="geometry" />
        </mxCell>
        <mxCell id="SdnSs6TBn7ditOvQ-hDc-257" value="" style="shape=tableRow;horizontal=0;startSize=0;swimlaneHead=0;swimlaneBody=0;fillColor=none;collapsible=0;dropTarget=0;points=[[0,0.5],[1,0.5]];portConstraint=eastwest;top=0;left=0;right=0;bottom=0;" vertex="1" parent="SdnSs6TBn7ditOvQ-hDc-243">
          <mxGeometry y="30" width="195" height="30" as="geometry" />
        </mxCell>
        <mxCell id="SdnSs6TBn7ditOvQ-hDc-258" value="FK" style="shape=partialRectangle;connectable=0;fillColor=none;top=0;left=0;bottom=0;right=0;fontStyle=0;overflow=hidden;whiteSpace=wrap;html=1;" vertex="1" parent="SdnSs6TBn7ditOvQ-hDc-257">
          <mxGeometry width="30" height="30" as="geometry">
            <mxRectangle width="30" height="30" as="alternateBounds" />
          </mxGeometry>
        </mxCell>
        <mxCell id="SdnSs6TBn7ditOvQ-hDc-259" value="&lt;font style=&quot;font-size: 10px;&quot;&gt;videogame_id varchar(15) &lt;br&gt;&lt;/font&gt;" style="shape=partialRectangle;connectable=0;fillColor=none;top=0;left=0;bottom=0;right=0;align=left;spacingLeft=6;fontStyle=0;overflow=hidden;whiteSpace=wrap;html=1;" vertex="1" parent="SdnSs6TBn7ditOvQ-hDc-257">
          <mxGeometry x="30" width="165" height="30" as="geometry">
            <mxRectangle width="165" height="30" as="alternateBounds" />
          </mxGeometry>
        </mxCell>
        <mxCell id="SdnSs6TBn7ditOvQ-hDc-261" value="" style="shape=tableRow;horizontal=0;startSize=0;swimlaneHead=0;swimlaneBody=0;fillColor=none;collapsible=0;dropTarget=0;points=[[0,0.5],[1,0.5]];portConstraint=eastwest;top=0;left=0;right=0;bottom=0;fontSize=10;" vertex="1" parent="SdnSs6TBn7ditOvQ-hDc-243">
          <mxGeometry y="60" width="195" height="30" as="geometry" />
        </mxCell>
        <mxCell id="SdnSs6TBn7ditOvQ-hDc-262" value="FK" style="shape=partialRectangle;connectable=0;fillColor=none;top=0;left=0;bottom=0;right=0;fontStyle=0;overflow=hidden;whiteSpace=wrap;html=1;" vertex="1" parent="SdnSs6TBn7ditOvQ-hDc-261">
          <mxGeometry width="30" height="30" as="geometry">
            <mxRectangle width="30" height="30" as="alternateBounds" />
          </mxGeometry>
        </mxCell>
        <mxCell id="SdnSs6TBn7ditOvQ-hDc-263" value="&lt;font style=&quot;font-size: 10px;&quot;&gt;piattaforma_id varchar(15) &lt;br&gt;&lt;/font&gt;" style="shape=partialRectangle;connectable=0;fillColor=none;top=0;left=0;bottom=0;right=0;align=left;spacingLeft=6;fontStyle=0;overflow=hidden;whiteSpace=wrap;html=1;" vertex="1" parent="SdnSs6TBn7ditOvQ-hDc-261">
          <mxGeometry x="30" width="165" height="30" as="geometry">
            <mxRectangle width="165" height="30" as="alternateBounds" />
          </mxGeometry>
        </mxCell>
        <mxCell id="SdnSs6TBn7ditOvQ-hDc-279" style="edgeStyle=orthogonalEdgeStyle;rounded=0;orthogonalLoop=1;jettySize=auto;html=1;exitX=1;exitY=0.5;exitDx=0;exitDy=0;entryX=0.008;entryY=-0.16;entryDx=0;entryDy=0;entryPerimeter=0;" edge="1" parent="1" source="SdnSs6TBn7ditOvQ-hDc-264" target="SdnSs6TBn7ditOvQ-hDc-87">
          <mxGeometry relative="1" as="geometry" />
        </mxCell>
        <mxCell id="SdnSs6TBn7ditOvQ-hDc-383" style="edgeStyle=orthogonalEdgeStyle;rounded=0;orthogonalLoop=1;jettySize=auto;html=1;entryX=0.964;entryY=-0.25;entryDx=0;entryDy=0;entryPerimeter=0;" edge="1" parent="1" source="SdnSs6TBn7ditOvQ-hDc-264" target="SdnSs6TBn7ditOvQ-hDc-61">
          <mxGeometry relative="1" as="geometry" />
        </mxCell>
        <mxCell id="SdnSs6TBn7ditOvQ-hDc-264" value="Relationship" style="shape=rhombus;double=1;perimeter=rhombusPerimeter;whiteSpace=wrap;html=1;align=center;" vertex="1" parent="1">
          <mxGeometry x="-565" y="-205" width="120" height="60" as="geometry" />
        </mxCell>
        <mxCell id="SdnSs6TBn7ditOvQ-hDc-270" value="*" style="text;strokeColor=none;fillColor=none;spacingLeft=4;spacingRight=4;overflow=hidden;rotatable=0;points=[[0,0.5],[1,0.5]];portConstraint=eastwest;fontSize=12;whiteSpace=wrap;html=1;" vertex="1" parent="1">
          <mxGeometry x="-820" y="90" width="40" height="30" as="geometry" />
        </mxCell>
        <mxCell id="SdnSs6TBn7ditOvQ-hDc-282" value="1" style="text;strokeColor=none;fillColor=none;spacingLeft=4;spacingRight=4;overflow=hidden;rotatable=0;points=[[0,0.5],[1,0.5]];portConstraint=eastwest;fontSize=12;whiteSpace=wrap;html=1;" vertex="1" parent="1">
          <mxGeometry x="-815" y="-30" width="40" height="30" as="geometry" />
        </mxCell>
        <mxCell id="SdnSs6TBn7ditOvQ-hDc-285" style="edgeStyle=orthogonalEdgeStyle;rounded=0;orthogonalLoop=1;jettySize=auto;html=1;" edge="1" parent="1" source="SdnSs6TBn7ditOvQ-hDc-283">
          <mxGeometry relative="1" as="geometry">
            <mxPoint x="-535" y="15" as="targetPoint" />
          </mxGeometry>
        </mxCell>
        <mxCell id="SdnSs6TBn7ditOvQ-hDc-389" style="edgeStyle=orthogonalEdgeStyle;rounded=0;orthogonalLoop=1;jettySize=auto;html=1;entryX=1.046;entryY=0.383;entryDx=0;entryDy=0;entryPerimeter=0;" edge="1" parent="1" source="SdnSs6TBn7ditOvQ-hDc-283" target="SdnSs6TBn7ditOvQ-hDc-64">
          <mxGeometry relative="1" as="geometry" />
        </mxCell>
        <mxCell id="SdnSs6TBn7ditOvQ-hDc-283" value="Relationship" style="shape=rhombus;double=1;perimeter=rhombusPerimeter;whiteSpace=wrap;html=1;align=center;" vertex="1" parent="1">
          <mxGeometry x="-595" y="-100" width="120" height="60" as="geometry" />
        </mxCell>
        <mxCell id="SdnSs6TBn7ditOvQ-hDc-286" value="1" style="text;strokeColor=none;fillColor=none;spacingLeft=4;spacingRight=4;overflow=hidden;rotatable=0;points=[[0,0.5],[1,0.5]];portConstraint=eastwest;fontSize=12;whiteSpace=wrap;html=1;" vertex="1" parent="1">
          <mxGeometry x="-623" y="-125" width="40" height="50" as="geometry" />
        </mxCell>
        <mxCell id="SdnSs6TBn7ditOvQ-hDc-287" value="*" style="text;strokeColor=none;fillColor=none;spacingLeft=4;spacingRight=4;overflow=hidden;rotatable=0;points=[[0,0.5],[1,0.5]];portConstraint=eastwest;fontSize=12;whiteSpace=wrap;html=1;" vertex="1" parent="1">
          <mxGeometry x="-525" y="-10" width="40" height="30" as="geometry" />
        </mxCell>
        <mxCell id="SdnSs6TBn7ditOvQ-hDc-295" style="edgeStyle=orthogonalEdgeStyle;rounded=0;orthogonalLoop=1;jettySize=auto;html=1;entryX=0.467;entryY=0.017;entryDx=0;entryDy=0;entryPerimeter=0;" edge="1" parent="1" source="SdnSs6TBn7ditOvQ-hDc-293" target="SdnSs6TBn7ditOvQ-hDc-54">
          <mxGeometry relative="1" as="geometry" />
        </mxCell>
        <mxCell id="SdnSs6TBn7ditOvQ-hDc-306" style="edgeStyle=orthogonalEdgeStyle;rounded=0;orthogonalLoop=1;jettySize=auto;html=1;entryX=1.045;entryY=0.367;entryDx=0;entryDy=0;entryPerimeter=0;" edge="1" parent="1" source="SdnSs6TBn7ditOvQ-hDc-293" target="SdnSs6TBn7ditOvQ-hDc-152">
          <mxGeometry relative="1" as="geometry">
            <mxPoint x="-860" y="-515" as="targetPoint" />
          </mxGeometry>
        </mxCell>
        <mxCell id="SdnSs6TBn7ditOvQ-hDc-293" value="Relationship" style="shape=rhombus;perimeter=rhombusPerimeter;whiteSpace=wrap;html=1;align=center;" vertex="1" parent="1">
          <mxGeometry x="-840" y="-400" width="120" height="60" as="geometry" />
        </mxCell>
        <mxCell id="SdnSs6TBn7ditOvQ-hDc-299" value="*" style="text;html=1;align=center;verticalAlign=middle;resizable=0;points=[];autosize=1;strokeColor=none;fillColor=none;" vertex="1" parent="1">
          <mxGeometry x="-780" y="-480" width="25" height="30" as="geometry" />
        </mxCell>
        <mxCell id="SdnSs6TBn7ditOvQ-hDc-300" value="*" style="text;html=1;align=center;verticalAlign=middle;resizable=0;points=[];autosize=1;strokeColor=none;fillColor=none;" vertex="1" parent="1">
          <mxGeometry x="-719" y="-315" width="25" height="30" as="geometry" />
        </mxCell>
        <mxCell id="SdnSs6TBn7ditOvQ-hDc-308" style="edgeStyle=orthogonalEdgeStyle;rounded=0;orthogonalLoop=1;jettySize=auto;html=1;entryX=0.5;entryY=1;entryDx=0;entryDy=0;" edge="1" parent="1" source="SdnSs6TBn7ditOvQ-hDc-307" target="SdnSs6TBn7ditOvQ-hDc-171">
          <mxGeometry relative="1" as="geometry" />
        </mxCell>
        <mxCell id="SdnSs6TBn7ditOvQ-hDc-309" style="edgeStyle=orthogonalEdgeStyle;rounded=0;orthogonalLoop=1;jettySize=auto;html=1;entryX=0.039;entryY=-0.035;entryDx=0;entryDy=0;entryPerimeter=0;" edge="1" parent="1" source="SdnSs6TBn7ditOvQ-hDc-307" target="SdnSs6TBn7ditOvQ-hDc-54">
          <mxGeometry relative="1" as="geometry" />
        </mxCell>
        <mxCell id="SdnSs6TBn7ditOvQ-hDc-307" value="Relationship" style="shape=rhombus;double=1;perimeter=rhombusPerimeter;whiteSpace=wrap;html=1;align=center;" vertex="1" parent="1">
          <mxGeometry x="-1350" y="-440" width="120" height="60" as="geometry" />
        </mxCell>
        <mxCell id="SdnSs6TBn7ditOvQ-hDc-310" value="1" style="text;strokeColor=none;fillColor=none;spacingLeft=4;spacingRight=4;overflow=hidden;rotatable=0;points=[[0,0.5],[1,0.5]];portConstraint=eastwest;fontSize=12;whiteSpace=wrap;html=1;" vertex="1" parent="1">
          <mxGeometry x="-840" y="-330" width="40" height="30" as="geometry" />
        </mxCell>
        <mxCell id="SdnSs6TBn7ditOvQ-hDc-311" value="*" style="text;strokeColor=none;fillColor=none;spacingLeft=4;spacingRight=4;overflow=hidden;rotatable=0;points=[[0,0.5],[1,0.5]];portConstraint=eastwest;fontSize=12;whiteSpace=wrap;html=1;" vertex="1" parent="1">
          <mxGeometry x="-1405" y="-450" width="40" height="30" as="geometry" />
        </mxCell>
        <mxCell id="SdnSs6TBn7ditOvQ-hDc-316" style="edgeStyle=orthogonalEdgeStyle;rounded=0;orthogonalLoop=1;jettySize=auto;html=1;entryX=-0.012;entryY=-0.167;entryDx=0;entryDy=0;entryPerimeter=0;" edge="1" parent="1" source="SdnSs6TBn7ditOvQ-hDc-315" target="SdnSs6TBn7ditOvQ-hDc-113">
          <mxGeometry relative="1" as="geometry" />
        </mxCell>
        <mxCell id="SdnSs6TBn7ditOvQ-hDc-381" style="edgeStyle=orthogonalEdgeStyle;rounded=0;orthogonalLoop=1;jettySize=auto;html=1;" edge="1" parent="1" source="SdnSs6TBn7ditOvQ-hDc-315">
          <mxGeometry relative="1" as="geometry">
            <mxPoint x="-895" y="-545" as="targetPoint" />
          </mxGeometry>
        </mxCell>
        <mxCell id="SdnSs6TBn7ditOvQ-hDc-315" value="Relationship" style="shape=rhombus;double=1;perimeter=rhombusPerimeter;whiteSpace=wrap;html=1;align=center;" vertex="1" parent="1">
          <mxGeometry x="-694" y="-575" width="120" height="60" as="geometry" />
        </mxCell>
        <mxCell id="SdnSs6TBn7ditOvQ-hDc-318" value="1" style="text;strokeColor=none;fillColor=none;spacingLeft=4;spacingRight=4;overflow=hidden;rotatable=0;points=[[0,0.5],[1,0.5]];portConstraint=eastwest;fontSize=12;whiteSpace=wrap;html=1;" vertex="1" parent="1">
          <mxGeometry x="-847" y="-585" width="40" height="30" as="geometry" />
        </mxCell>
        <mxCell id="SdnSs6TBn7ditOvQ-hDc-319" value="*" style="text;strokeColor=none;fillColor=none;spacingLeft=4;spacingRight=4;overflow=hidden;rotatable=0;points=[[0,0.5],[1,0.5]];portConstraint=eastwest;fontSize=12;whiteSpace=wrap;html=1;" vertex="1" parent="1">
          <mxGeometry x="-495" y="-580" width="40" height="30" as="geometry" />
        </mxCell>
        <mxCell id="SdnSs6TBn7ditOvQ-hDc-324" value="torneo_videogame" style="shape=table;startSize=30;container=1;collapsible=1;childLayout=tableLayout;fixedRows=1;rowLines=0;fontStyle=1;align=center;resizeLast=1;html=1;" vertex="1" parent="1">
          <mxGeometry x="-719" y="-415" width="180" height="90" as="geometry" />
        </mxCell>
        <mxCell id="SdnSs6TBn7ditOvQ-hDc-338" value="" style="shape=tableRow;horizontal=0;startSize=0;swimlaneHead=0;swimlaneBody=0;fillColor=none;collapsible=0;dropTarget=0;points=[[0,0.5],[1,0.5]];portConstraint=eastwest;top=0;left=0;right=0;bottom=0;" vertex="1" parent="SdnSs6TBn7ditOvQ-hDc-324">
          <mxGeometry y="30" width="180" height="30" as="geometry" />
        </mxCell>
        <mxCell id="SdnSs6TBn7ditOvQ-hDc-339" value="FK" style="shape=partialRectangle;connectable=0;fillColor=none;top=0;left=0;bottom=0;right=0;fontStyle=0;overflow=hidden;whiteSpace=wrap;html=1;" vertex="1" parent="SdnSs6TBn7ditOvQ-hDc-338">
          <mxGeometry width="30" height="30" as="geometry">
            <mxRectangle width="30" height="30" as="alternateBounds" />
          </mxGeometry>
        </mxCell>
        <mxCell id="SdnSs6TBn7ditOvQ-hDc-340" value="&lt;font style=&quot;font-size: 10px;&quot;&gt;torneo_id varchar(15)&lt;/font&gt;" style="shape=partialRectangle;connectable=0;fillColor=none;top=0;left=0;bottom=0;right=0;align=left;spacingLeft=6;fontStyle=0;overflow=hidden;whiteSpace=wrap;html=1;" vertex="1" parent="SdnSs6TBn7ditOvQ-hDc-338">
          <mxGeometry x="30" width="150" height="30" as="geometry">
            <mxRectangle width="150" height="30" as="alternateBounds" />
          </mxGeometry>
        </mxCell>
        <mxCell id="SdnSs6TBn7ditOvQ-hDc-341" value="" style="shape=tableRow;horizontal=0;startSize=0;swimlaneHead=0;swimlaneBody=0;fillColor=none;collapsible=0;dropTarget=0;points=[[0,0.5],[1,0.5]];portConstraint=eastwest;top=0;left=0;right=0;bottom=0;" vertex="1" parent="SdnSs6TBn7ditOvQ-hDc-324">
          <mxGeometry y="60" width="180" height="30" as="geometry" />
        </mxCell>
        <mxCell id="SdnSs6TBn7ditOvQ-hDc-342" value="FK" style="shape=partialRectangle;connectable=0;fillColor=none;top=0;left=0;bottom=0;right=0;fontStyle=0;overflow=hidden;whiteSpace=wrap;html=1;" vertex="1" parent="SdnSs6TBn7ditOvQ-hDc-341">
          <mxGeometry width="30" height="30" as="geometry">
            <mxRectangle width="30" height="30" as="alternateBounds" />
          </mxGeometry>
        </mxCell>
        <mxCell id="SdnSs6TBn7ditOvQ-hDc-343" value="&lt;font style=&quot;font-size: 10px;&quot;&gt;videogame_id varchar(15)&lt;/font&gt;" style="shape=partialRectangle;connectable=0;fillColor=none;top=0;left=0;bottom=0;right=0;align=left;spacingLeft=6;fontStyle=0;overflow=hidden;whiteSpace=wrap;html=1;" vertex="1" parent="SdnSs6TBn7ditOvQ-hDc-341">
          <mxGeometry x="30" width="150" height="30" as="geometry">
            <mxRectangle width="150" height="30" as="alternateBounds" />
          </mxGeometry>
        </mxCell>
        <mxCell id="SdnSs6TBn7ditOvQ-hDc-353" style="edgeStyle=orthogonalEdgeStyle;rounded=0;orthogonalLoop=1;jettySize=auto;html=1;entryX=1.028;entryY=0.067;entryDx=0;entryDy=0;entryPerimeter=0;" edge="1" parent="1" source="SdnSs6TBn7ditOvQ-hDc-348" target="SdnSs6TBn7ditOvQ-hDc-55">
          <mxGeometry relative="1" as="geometry" />
        </mxCell>
        <mxCell id="SdnSs6TBn7ditOvQ-hDc-354" style="edgeStyle=orthogonalEdgeStyle;rounded=0;orthogonalLoop=1;jettySize=auto;html=1;entryX=-0.011;entryY=0.167;entryDx=0;entryDy=0;entryPerimeter=0;" edge="1" parent="1" source="SdnSs6TBn7ditOvQ-hDc-348" target="SdnSs6TBn7ditOvQ-hDc-159">
          <mxGeometry relative="1" as="geometry" />
        </mxCell>
        <mxCell id="SdnSs6TBn7ditOvQ-hDc-348" value="Relationship" style="shape=rhombus;double=1;perimeter=rhombusPerimeter;whiteSpace=wrap;html=1;align=center;" vertex="1" parent="1">
          <mxGeometry x="-465" y="-390" width="120" height="60" as="geometry" />
        </mxCell>
        <mxCell id="SdnSs6TBn7ditOvQ-hDc-355" value="1" style="text;strokeColor=none;fillColor=none;spacingLeft=4;spacingRight=4;overflow=hidden;rotatable=0;points=[[0,0.5],[1,0.5]];portConstraint=eastwest;fontSize=12;whiteSpace=wrap;html=1;" vertex="1" parent="1">
          <mxGeometry x="-625" y="-265" width="40" height="30" as="geometry" />
        </mxCell>
        <mxCell id="SdnSs6TBn7ditOvQ-hDc-356" value="*" style="text;strokeColor=none;fillColor=none;spacingLeft=4;spacingRight=4;overflow=hidden;rotatable=0;points=[[0,0.5],[1,0.5]];portConstraint=eastwest;fontSize=12;whiteSpace=wrap;html=1;" vertex="1" parent="1">
          <mxGeometry x="-320" y="-390" width="40" height="30" as="geometry" />
        </mxCell>
        <mxCell id="SdnSs6TBn7ditOvQ-hDc-366" style="edgeStyle=orthogonalEdgeStyle;rounded=0;orthogonalLoop=1;jettySize=auto;html=1;" edge="1" parent="1" source="SdnSs6TBn7ditOvQ-hDc-365">
          <mxGeometry relative="1" as="geometry">
            <mxPoint x="-220" y="-560" as="targetPoint" />
          </mxGeometry>
        </mxCell>
        <mxCell id="SdnSs6TBn7ditOvQ-hDc-367" style="edgeStyle=orthogonalEdgeStyle;rounded=0;orthogonalLoop=1;jettySize=auto;html=1;entryX=0.644;entryY=-0.058;entryDx=0;entryDy=0;entryPerimeter=0;" edge="1" parent="1" source="SdnSs6TBn7ditOvQ-hDc-365" target="SdnSs6TBn7ditOvQ-hDc-158">
          <mxGeometry relative="1" as="geometry">
            <Array as="points">
              <mxPoint x="-90" y="-422" />
            </Array>
          </mxGeometry>
        </mxCell>
        <mxCell id="SdnSs6TBn7ditOvQ-hDc-365" value="Relationship" style="shape=rhombus;double=1;perimeter=rhombusPerimeter;whiteSpace=wrap;html=1;align=center;" vertex="1" parent="1">
          <mxGeometry x="-150" y="-590" width="120" height="60" as="geometry" />
        </mxCell>
        <mxCell id="SdnSs6TBn7ditOvQ-hDc-368" value="1" style="text;strokeColor=none;fillColor=none;spacingLeft=4;spacingRight=4;overflow=hidden;rotatable=0;points=[[0,0.5],[1,0.5]];portConstraint=eastwest;fontSize=12;whiteSpace=wrap;html=1;" vertex="1" parent="1">
          <mxGeometry x="-205" y="-590" width="40" height="30" as="geometry" />
        </mxCell>
        <mxCell id="SdnSs6TBn7ditOvQ-hDc-369" value="*" style="text;strokeColor=none;fillColor=none;spacingLeft=4;spacingRight=4;overflow=hidden;rotatable=0;points=[[0,0.5],[1,0.5]];portConstraint=eastwest;fontSize=12;whiteSpace=wrap;html=1;" vertex="1" parent="1">
          <mxGeometry x="-80" y="-455" width="40" height="30" as="geometry" />
        </mxCell>
        <mxCell id="SdnSs6TBn7ditOvQ-hDc-222" value="*" style="text;strokeColor=none;fillColor=none;spacingLeft=4;spacingRight=4;overflow=hidden;rotatable=0;points=[[0,0.5],[1,0.5]];portConstraint=eastwest;fontSize=12;whiteSpace=wrap;html=1;" vertex="1" parent="1">
          <mxGeometry x="-700" y="-200" width="40" height="30" as="geometry" />
        </mxCell>
        <mxCell id="SdnSs6TBn7ditOvQ-hDc-388" value="1" style="text;strokeColor=none;fillColor=none;spacingLeft=4;spacingRight=4;overflow=hidden;rotatable=0;points=[[0,0.5],[1,0.5]];portConstraint=eastwest;fontSize=12;whiteSpace=wrap;html=1;" vertex="1" parent="1">
          <mxGeometry x="-935" y="-375" width="40" height="30" as="geometry" />
        </mxCell>
      </root>
    </mxGraphModel>
  </diagram>
</mxfile>
